<svg width="300" height="104" viewBox="0 0 300 104" fill="none" xmlns="http://www.w3.org/2000/svg">
<path d="M19 56.7755H20.4878V51.6878H23.6102C25.8694 51.6878 27.5408 50.0898 27.5408 47.7755C27.5408 45.4429 25.9429 43.9184 23.6102 43.9184H19V56.7755ZM20.4878 50.3653V45.2408H23.4816C25.0245 45.2408 26.0163 46.3061 26.0163 47.7755C26.0163 49.2633 25.0245 50.3653 23.4816 50.3653H20.4878Z" fill="white"/>
<path d="M33.8213 57.0143C36.6866 57.0143 38.8172 54.8653 38.8172 52C38.8172 49.1347 36.7233 46.9857 33.8397 46.9857C30.9927 46.9857 28.8437 49.1163 28.8437 52C28.8437 54.902 30.956 57.0143 33.8213 57.0143ZM33.8213 55.6918C31.7825 55.6918 30.3315 54.149 30.3315 52C30.3315 49.9061 31.7642 48.3082 33.8213 48.3082C35.8784 48.3082 37.3295 49.8878 37.3295 52C37.3295 54.1306 35.8784 55.6918 33.8213 55.6918Z" fill="white"/>
<path d="M42.9853 56.7755H44.8588L47.32 49.0245H47.4302L49.8731 56.7755H51.7465L54.7404 47.2245H53.1608L50.8282 55.1224H50.718L48.2016 47.2245H46.5486L44.0139 55.1224H43.9037L41.5894 47.2245H40.0098L42.9853 56.7755Z" fill="white"/>
<path d="M60.6322 57.0143C62.873 57.0143 64.5444 55.7469 65.0771 53.9653H63.571C63.1301 55.0857 61.9179 55.6918 60.6505 55.6918C58.6852 55.6918 57.4546 54.4245 57.3812 52.5143H65.1689V51.8714C65.1689 49.1163 63.4424 46.9857 60.5403 46.9857C57.9322 46.9857 55.8567 48.951 55.8567 52C55.8567 54.8653 57.7118 57.0143 60.6322 57.0143ZM57.4179 51.2286C57.5648 49.4653 58.9424 48.3082 60.5403 48.3082C62.1567 48.3082 63.4975 49.3184 63.6261 51.2286H57.4179Z" fill="white"/>
<path d="M67.7481 56.7755H69.1991V51.8531C69.1991 50.0347 70.1726 48.6755 71.9175 48.6755H72.7073V47.2245H71.8991C70.5032 47.2245 69.5665 48.198 69.2909 49.0061H69.1807V47.2245H67.7481V56.7755Z" fill="white"/>
<path d="M78.7843 57.0143C81.0251 57.0143 82.6965 55.7469 83.2292 53.9653H81.7231C81.2822 55.0857 80.07 55.6918 78.8026 55.6918C76.8373 55.6918 75.6067 54.4245 75.5333 52.5143H83.321V51.8714C83.321 49.1163 81.5945 46.9857 78.6924 46.9857C76.0843 46.9857 74.0088 48.951 74.0088 52C74.0088 54.8653 75.8639 57.0143 78.7843 57.0143ZM75.57 51.2286C75.7169 49.4653 77.0945 48.3082 78.6924 48.3082C80.3088 48.3082 81.6496 49.3184 81.7782 51.2286H75.57Z" fill="white"/>
<path d="M89.9226 57.0143C91.9981 57.0143 92.99 55.6184 93.2288 55.2694H93.339V56.7755H94.7349V43H93.2839V48.7673H93.1737C92.8798 48.2714 91.8145 46.9857 89.8124 46.9857C87.1124 46.9857 85.1655 49.0796 85.1655 52.0184C85.1655 54.9388 87.1124 57.0143 89.9226 57.0143ZM90.0145 55.7102C88.0124 55.7102 86.6533 54.2592 86.6533 52.0184C86.6533 49.851 88.0124 48.3082 89.9777 48.3082C91.8696 48.3082 93.339 49.6673 93.339 52.0184C93.339 54.0204 92.09 55.7102 90.0145 55.7102Z" fill="white"/>
<path d="M107.824 57.0143C110.634 57.0143 112.581 54.9388 112.581 52.0184C112.581 49.0796 110.634 46.9857 107.934 46.9857C105.932 46.9857 104.867 48.2714 104.573 48.7673H104.463V43H103.012V56.7755H104.408V55.2694H104.518C104.757 55.6184 105.749 57.0143 107.824 57.0143ZM107.732 55.7102C105.657 55.7102 104.408 54.0204 104.408 52.0184C104.408 49.6673 105.877 48.3082 107.769 48.3082C109.734 48.3082 111.094 49.851 111.094 52.0184C111.094 54.2592 109.734 55.7102 107.732 55.7102Z" fill="white"/>
<path d="M114.721 61H115.713C117.274 61 118.027 60.2653 118.523 58.9612L123.078 47.2245H121.443L118.468 55.3061H118.358L115.4 47.2245H113.784L117.66 57.2898L117.219 58.4469C116.907 59.2735 116.374 59.6776 115.437 59.6776H114.721V61Z" fill="white"/>
<g clip-path="url(#clip0)">
<path d="M209.901 50.3427L214.026 44.2354H220.748L214.781 53.0587L220.936 62.2911H214.218L209.901 55.7845V62.2911H204.324V36.4374H209.901V50.3427Z" fill="white"/>
<path d="M279.731 49.8498V62.2862H274.159V49.9829C274.159 48.7308 273.132 47.7056 271.877 47.7056C270.613 47.7056 269.59 48.7308 269.59 49.9829V62.2862H264.018V36.4374H269.59V44.8072C270.657 44.0136 271.976 43.5404 273.404 43.5404C276.901 43.5354 279.731 46.3599 279.731 49.8498Z" fill="white"/>
<path d="M195.645 44.236V45.1282C194.133 44.1522 192.33 43.5804 190.394 43.5804C185.04 43.5804 180.698 47.9132 180.698 53.2565C180.698 58.5998 185.04 62.9325 190.399 62.9325C192.335 62.9325 194.133 62.3607 195.65 61.3848V62.3262H201.222V44.236H195.645V44.236ZM191.209 57.9688C188.483 57.9688 186.27 55.7605 186.27 53.0396C186.27 50.3187 188.483 48.1104 191.209 48.1104C193.936 48.1104 196.149 50.3187 196.149 53.0396C196.149 55.7605 193.941 57.9688 191.209 57.9688Z" fill="white"/>
<path d="M235.883 44.236V45.1282C234.371 44.1522 232.569 43.5804 230.632 43.5804C225.278 43.5804 220.936 47.9132 220.936 53.2565C220.936 58.5998 225.278 62.9325 230.632 62.9325C232.569 62.9325 234.367 62.3607 235.883 61.3848V62.3262H241.455V44.236H235.883V44.236ZM231.447 57.9688C228.721 57.9688 226.508 55.7605 226.508 53.0396C226.508 50.3187 228.721 48.1104 231.447 48.1104C234.174 48.1104 236.387 50.3187 236.387 53.0396C236.387 55.7605 234.174 57.9688 231.447 57.9688Z" fill="white"/>
<path d="M249.585 56.4459C249.61 56.8156 249.708 57.131 249.876 57.3824C250.054 57.6486 250.286 57.8655 250.563 58.0331C250.864 58.2105 251.215 58.3436 251.615 58.4274C252.035 58.5161 252.47 58.5605 252.919 58.5605C253.922 58.5605 254.678 58.4077 255.167 58.1119C255.577 57.8605 255.759 57.5894 255.759 57.2345C255.759 57.0719 255.725 56.9388 255.656 56.8254C255.616 56.7613 255.507 56.6282 255.206 56.4606C254.925 56.3029 254.539 56.155 254.055 56.017C253.546 55.8741 252.884 55.7213 252.084 55.5734C251.027 55.3614 250.044 55.0953 249.16 54.7749C248.256 54.4495 247.471 54.0453 246.819 53.5771C246.147 53.0891 245.608 52.5173 245.228 51.8765C244.833 51.211 244.63 50.4421 244.63 49.5844C244.63 48.7661 244.828 47.9676 245.218 47.2233C245.608 46.4839 246.167 45.8333 246.883 45.2861C247.584 44.7488 248.449 44.3151 249.447 44.0045C250.434 43.694 251.561 43.5363 252.791 43.5363C254.07 43.5363 255.241 43.6891 256.268 43.9897C257.31 44.2954 258.209 44.7291 258.945 45.2713C259.696 45.8283 260.279 46.5036 260.679 47.2726C261.079 48.0465 261.282 48.8992 261.282 49.8062H255.552C255.552 49.2985 255.354 48.8992 254.934 48.5443C254.49 48.1746 253.769 47.9923 252.786 47.9923C251.862 47.9923 251.175 48.1451 250.741 48.4507C250.36 48.7169 250.187 49.0077 250.187 49.3626C250.187 49.5302 250.222 49.683 250.291 49.8259C250.35 49.9492 250.474 50.0724 250.657 50.1907C250.884 50.3386 251.215 50.4815 251.64 50.6097C252.089 50.7477 252.677 50.8709 253.378 50.9695C254.47 51.147 255.497 51.3786 256.431 51.6547C257.394 51.9406 258.244 52.3201 258.95 52.7736C259.686 53.2517 260.274 53.8383 260.694 54.5235C261.124 55.2283 261.346 56.0712 261.346 57.0226C261.346 57.9049 261.129 58.7281 260.704 59.4724C260.284 60.2069 259.686 60.8427 258.926 61.3701C258.185 61.8828 257.281 62.287 256.238 62.5679C255.211 62.844 254.06 62.9869 252.805 62.9869C251.417 62.9869 250.173 62.7996 249.096 62.4349C248.019 62.0652 247.095 61.5772 246.359 60.9758C245.608 60.3646 245.035 59.6597 244.645 58.876C244.255 58.0873 244.052 57.2789 244.052 56.4705L249.585 56.4459Z" fill="white"/>
<path d="M168.719 67.5309L174.706 57.1697L162.722 36.4424H150.739L168.719 67.5309Z" fill="white"/>
<path d="M162.727 57.1704L168.714 67.5316H156.735L150.739 57.1704H162.727Z" fill="white"/>
<path d="M144.747 46.804H156.73L144.752 67.5313L138.755 57.1701L144.747 46.804Z" fill="white"/>
</g>
<defs>
<clipPath id="clip0">
<rect width="141.474" height="32" fill="white" transform="translate(138.588 36)"/>
</clipPath>
</defs>
</svg>
